<svg width="65" height="34" viewBox="0 0 65 34" fill="none" xmlns="http://www.w3.org/2000/svg">
<rect x="0.53064" y="16.1905" width="63.4545" height="15.5719" fill="#F24444"/>
<path d="M0.973367 13.1905V3.73598H3.25852V7.53072H6.98402V3.73598H9.26456V13.1905H6.98402V9.39116H3.25852V13.1905H0.973367ZM19.6216 8.46325C19.6216 9.50349 19.4216 10.3852 19.0215 11.1085C18.6214 11.8317 18.0797 12.3811 17.3965 12.7566C16.7163 13.132 15.9531 13.3198 15.1067 13.3198C14.2573 13.3198 13.4925 13.1305 12.8123 12.752C12.1322 12.3734 11.592 11.824 11.1919 11.1039C10.7949 10.3806 10.5964 9.50042 10.5964 8.46325C10.5964 7.423 10.7949 6.54125 11.1919 5.81801C11.592 5.09476 12.1322 4.5454 12.8123 4.16992C13.4925 3.79445 14.2573 3.60671 15.1067 3.60671C15.9531 3.60671 16.7163 3.79445 17.3965 4.16992C18.0797 4.5454 18.6214 5.09476 19.0215 5.81801C19.4216 6.54125 19.6216 7.423 19.6216 8.46325ZM17.2857 8.46325C17.2857 7.84772 17.198 7.3276 17.0225 6.90288C16.8502 6.47816 16.6009 6.15655 16.2747 5.93803C15.9515 5.71952 15.5622 5.61027 15.1067 5.61027C14.6543 5.61027 14.265 5.71952 13.9387 5.93803C13.6125 6.15655 13.3617 6.47816 13.1863 6.90288C13.0139 7.3276 12.9277 7.84772 12.9277 8.46325C12.9277 9.07878 13.0139 9.5989 13.1863 10.0236C13.3617 10.4483 13.6125 10.7699 13.9387 10.9885C14.265 11.207 14.6543 11.3162 15.1067 11.3162C15.5622 11.3162 15.9515 11.207 16.2747 10.9885C16.6009 10.7699 16.8502 10.4483 17.0225 10.0236C17.198 9.5989 17.2857 9.07878 17.2857 8.46325ZM20.2148 5.5918V3.73598H28.206V5.5918H25.3391V13.1905H23.0863V5.5918H20.2148ZM31.4687 3.73598L33.583 10.6607H33.6615L35.7758 3.73598H38.3334L35.1434 13.1905H32.1011L28.9111 3.73598H31.4687ZM41.6365 3.73598V13.1905H39.3513V3.73598H41.6365ZM43.071 13.1905V3.73598H49.6634V5.5918H45.3562V7.53072H49.3263V9.39116H45.3562V11.3347H49.6634V13.1905H43.071ZM53.3612 13.1905L50.6097 3.73598H53.1349L54.5614 9.93129H54.6399L56.2695 3.73598H58.3285L59.9581 9.94514H60.0366L61.4677 3.73598H63.9883L61.2415 13.1905H59.0394L57.3359 7.45686H57.2621L55.5586 13.1905H53.3612Z" fill="#060606"/>
<path d="M4.08345 29.1905V18.2814H6.72017V27.0492H11.2585V29.1905H4.08345ZM20.9797 29.1905H18.1459L21.8267 18.2814H25.337L29.0177 29.1905H26.1839L23.6218 21.03H23.5365L20.9797 29.1905ZM20.6015 24.8972H26.5248V26.9H20.6015V24.8972ZM36.0422 29.1905V18.2814H40.5912C41.408 18.2814 42.0916 18.3968 42.642 18.6277C43.196 18.8585 43.6115 19.1816 43.8885 19.5971C44.169 20.0126 44.3093 20.4938 44.3093 21.0407C44.3093 21.4561 44.2223 21.8272 44.0483 22.1539C43.8743 22.4771 43.6346 22.7452 43.3292 22.9583C43.0238 23.1713 42.6704 23.3205 42.2692 23.4057V23.5123C42.7095 23.5336 43.1161 23.6525 43.489 23.8691C43.8654 24.0858 44.1672 24.3876 44.3945 24.7747C44.6218 25.1582 44.7354 25.6128 44.7354 26.1383C44.7354 26.7243 44.5863 27.248 44.288 27.7097C43.9897 28.1678 43.5582 28.53 42.9936 28.7963C42.429 29.0591 41.7436 29.1905 40.9375 29.1905H36.0422ZM38.679 27.0652H40.3089C40.8807 27.0652 41.3015 26.9569 41.5714 26.7402C41.8448 26.5236 41.9815 26.2218 41.9815 25.8347C41.9815 25.5542 41.9158 25.3127 41.7844 25.1103C41.653 24.9043 41.4666 24.7463 41.2251 24.6362C40.9836 24.5226 40.6942 24.4657 40.3569 24.4657H38.679V27.0652ZM38.679 22.7665H40.1385C40.4261 22.7665 40.6818 22.7186 40.9055 22.6227C41.1292 22.5268 41.3033 22.3883 41.4275 22.2072C41.5554 22.0261 41.6193 21.8077 41.6193 21.552C41.6193 21.1863 41.4897 20.8986 41.2305 20.6891C40.9712 20.4796 40.6214 20.3748 40.1811 20.3748H38.679V22.7665ZM57.7498 21.552C57.7143 21.1614 57.5563 20.8578 57.2758 20.6412C56.9988 20.421 56.6028 20.3109 56.0879 20.3109C55.747 20.3109 55.4629 20.3553 55.2356 20.4441C55.0084 20.5329 54.8379 20.6554 54.7243 20.8116C54.6106 20.9643 54.552 21.1401 54.5485 21.339C54.5414 21.5023 54.5733 21.6461 54.6444 21.7704C54.7189 21.8947 54.8255 22.0048 54.964 22.1007C55.106 22.193 55.2765 22.2747 55.4753 22.3457C55.6742 22.4167 55.8979 22.4789 56.1465 22.5321L57.084 22.7452C57.6238 22.8624 58.0996 23.0186 58.5116 23.214C58.927 23.4093 59.2751 23.6419 59.5556 23.9118C59.8397 24.1816 60.0545 24.4924 60.2001 24.8439C60.3457 25.1955 60.4203 25.5897 60.4238 26.0265C60.4203 26.7154 60.2463 27.3066 59.9018 27.8003C59.5574 28.2939 59.062 28.6721 58.4157 28.9348C57.7729 29.1976 56.997 29.329 56.0879 29.329C55.1753 29.329 54.3798 29.1923 53.7015 28.9189C53.0233 28.6454 52.4959 28.2299 52.1195 27.6724C51.7431 27.1149 51.5496 26.41 51.5389 25.5577H54.0638C54.0851 25.9093 54.1792 26.2022 54.3461 26.4366C54.513 26.671 54.742 26.8485 55.0332 26.9693C55.328 27.09 55.6689 27.1504 56.0559 27.1504C56.4111 27.1504 56.7129 27.1025 56.9615 27.0066C57.2136 26.9107 57.4072 26.7775 57.5421 26.6071C57.677 26.4366 57.7463 26.2413 57.7498 26.0211C57.7463 25.8152 57.6824 25.6394 57.5581 25.4938C57.4338 25.3446 57.242 25.2168 56.9828 25.1103C56.7271 25.0002 56.4004 24.899 56.0027 24.8066L54.8628 24.5403C53.9182 24.3237 53.1742 23.9739 52.6309 23.4909C52.0876 23.0044 51.8177 22.3475 51.8212 21.5201C51.8177 20.8454 51.9988 20.2541 52.3645 19.7463C52.7303 19.2385 53.2363 18.8425 53.8827 18.5584C54.529 18.2743 55.2658 18.1323 56.0932 18.1323C56.9384 18.1323 57.6717 18.2761 58.2932 18.5637C58.9182 18.8478 59.4029 19.2473 59.7474 19.7623C60.0918 20.2772 60.2676 20.8738 60.2747 21.552H57.7498Z" fill="#F2F2F0"/>
</svg>
