<svg width="437" height="437" viewBox="0 0 437 437" fill="none" xmlns="http://www.w3.org/2000/svg">
<circle cx="218.5" cy="218.5" r="218.5" fill="#171617"/>
<path d="M198.614 308.653C195.001 308.653 193.194 307.569 193.194 305.401C197.169 303.775 200.421 300.342 202.95 295.103C205.66 289.864 207.647 283.54 208.912 276.133C210.177 268.726 210.809 260.957 210.809 252.827C210.809 241.264 209.906 229.25 208.099 216.784C206.292 204.137 203.673 192.484 200.24 181.825C196.988 170.985 193.104 162.584 188.587 156.622C178.65 143.072 166.636 136.297 152.544 136.297C141.704 136.297 131.858 138.917 123.005 144.156C114.333 149.215 107.468 156.17 102.409 165.023C97.3503 173.695 94.821 183.541 94.821 194.562C94.821 207.209 97.7117 217.507 103.493 225.456C109.274 233.405 118.037 237.38 129.78 237.38C138.091 237.38 144.866 234.67 150.105 229.25C155.344 223.83 157.964 216.965 157.964 208.654C157.964 206.667 157.603 204.408 156.88 201.879C156.338 199.169 155.886 197.091 155.525 195.646V195.104C155.525 194.02 156.067 193.478 157.151 193.478C158.235 193.478 159.138 194.562 159.861 196.73C160.584 198.717 161.126 201.066 161.487 203.776C161.848 206.305 162.029 208.473 162.029 210.28C162.029 219.675 158.687 227.263 152.002 233.044C145.317 238.645 137.278 241.445 127.883 241.445C119.572 241.445 112.165 239.277 105.661 234.941C99.3377 230.605 94.279 224.914 90.485 217.868C86.8717 210.641 85.065 202.963 85.065 194.833C85.065 175.863 91.6593 160.597 104.848 149.034C117.675 137.833 133.484 132.232 152.273 132.232C163.294 132.232 173.501 134.942 182.896 140.362C191.929 145.601 199.156 152.828 204.576 162.042C210.177 171.256 214.242 181.464 216.771 192.665C219.3 203.686 220.565 214.706 220.565 225.727C220.565 234.941 220.023 244.697 218.939 254.995C218.036 265.293 216.229 274.868 213.519 283.721C210.99 292.393 207.196 299.349 202.137 304.588C209.906 303.685 217.403 299.71 224.63 292.664C231.857 285.618 238.632 276.856 244.955 266.377C251.459 255.718 257.15 244.787 262.028 233.586C267.809 220.217 273.049 208.202 277.746 197.543C282.624 186.884 286.87 178.663 290.483 172.882C298.432 160.055 306.111 151.021 313.518 145.782C321.106 140.543 328.513 137.923 335.74 137.923C342.244 137.923 347.483 139.73 351.458 143.343C355.613 146.776 357.691 151.654 357.691 157.977C357.691 162.494 356.878 165.836 355.252 168.004C353.807 170.172 352.361 171.256 350.916 171.256C349.109 171.256 348.206 170.443 348.206 168.817C349.651 168.275 350.735 167.462 351.458 166.378C352.361 165.113 352.813 163.307 352.813 160.958C352.813 149.757 347.393 144.156 336.553 144.156C326.978 144.156 318.667 147.86 311.621 155.267C304.575 162.674 297.439 173.605 290.212 188.058C282.985 202.331 274.313 219.765 264.196 240.361C241.793 285.889 219.933 308.653 198.614 308.653Z" fill="#ECDCBF"/>
<path d="M198.614 309.591C198.614 308.965 198.614 308.34 198.614 307.715C196.401 307.732 193.985 307.174 194.163 305.401L193.561 306.298C198.442 304.341 201.732 299.975 203.879 295.551L203.866 295.577C207.013 289.532 208.845 282.943 210.012 276.321C211.369 268.563 211.989 260.69 212.02 252.827C212.028 250.86 212.01 248.891 211.966 246.924C211.743 236.77 210.854 226.64 209.437 216.59C207.78 204.689 205.306 192.866 201.652 181.37L201.661 181.399C198.956 172.425 195.599 163.443 189.847 155.668L189.861 155.688C181.564 143.799 167.77 134.246 152.544 134.577C141.975 134.495 131.243 137.146 122.081 142.595L122.091 142.59C113.243 147.661 105.799 155.222 100.762 164.082L100.77 164.067C95.3245 173.25 92.8259 184.01 92.842 194.562C92.7942 205.616 95.0212 217.314 101.828 226.667C108.009 235.692 119.492 239.709 129.78 239.506C137.665 239.652 146.093 236.718 151.668 230.76C157.447 224.99 160.281 216.583 160.181 208.654C160.177 206.047 159.681 203.603 159.024 201.266L159.067 201.442C158.647 199.337 158.225 197.248 157.7 195.102L157.767 195.646C157.767 195.465 157.767 195.285 157.768 195.104C157.767 195.036 157.78 195.014 157.762 195.081C157.746 195.143 157.672 195.32 157.519 195.472C157.368 195.626 157.191 195.7 157.129 195.717C157.061 195.736 157.083 195.724 157.151 195.725C156.997 195.734 156.81 195.637 156.825 195.639C156.828 195.638 156.937 195.744 157.048 195.919C157.279 196.273 157.523 196.84 157.722 197.443L157.742 197.501C158.48 199.552 158.938 201.794 159.239 204.076L159.242 204.097C159.535 206.186 159.75 208.281 159.75 210.28C159.853 218.376 156.642 226.155 150.485 231.29L150.513 231.266C144.273 236.574 136.147 239.166 127.883 239.089C120.435 239.115 113.095 237.09 106.985 232.956L107.01 232.973C100.972 228.848 96.0676 223.208 92.6085 216.725L92.6422 216.789C89.2287 209.991 87.4721 202.442 87.5 194.833C87.2588 178.163 93.7653 161.635 106.478 150.894C118.896 139.831 135.593 134.574 152.273 134.727C162.566 134.689 172.766 137.355 181.647 142.527C184.26 144.043 186.756 145.758 189.096 147.664C194.437 152 198.922 157.345 202.422 163.309L202.441 163.34C208.035 172.522 211.969 182.683 214.341 193.214C216.797 203.881 218.087 214.8 218.089 225.727C218.093 235.4 217.503 245.087 216.495 254.738L216.491 254.78C215.658 264.36 213.984 273.859 211.192 283.009L211.183 283.04C209.036 290.449 205.623 297.509 200.404 302.914L195.724 307.756L202.415 306.981C211.812 305.91 219.952 300.594 226.291 294.368C234.426 286.406 241.153 277.216 246.955 267.584L246.949 267.594C253.412 256.97 259.17 245.91 264.117 234.496C269.301 222.453 274.508 210.43 279.767 198.434L279.754 198.462C283.591 190.093 287.565 181.745 292.309 174.023C298.533 164.064 305.489 154.212 314.716 147.476L314.697 147.489C321 143.098 328.259 139.937 335.74 139.941C341.077 139.895 346.35 141.325 350.129 144.805L350.2 144.866C354.054 147.926 355.802 152.853 355.759 157.977C355.763 161.254 355.343 164.672 353.729 166.861L353.668 166.948C352.791 168.343 351.503 169.457 350.916 169.367C350.43 169.381 350.105 169.24 350.142 169.246C350.149 169.248 350.162 169.286 350.136 169.225C350.113 169.167 350.083 169.017 350.083 168.817L348.865 170.575C350.4 170.007 351.994 168.966 353.01 167.413L352.976 167.462C354.449 165.322 354.645 163.016 354.663 160.958C354.639 156.321 353.799 151.085 350.176 147.23C346.533 143.362 341.19 142.362 336.553 142.385C326.669 142.231 316.941 146.947 310.401 154.106C301.25 163.96 294.722 175.605 288.822 187.363C280.09 204.767 271.513 222.258 262.991 239.769C258.899 248.158 254.559 256.357 249.758 264.316C237.66 283.447 222.562 306.397 198.614 307.715C198.614 308.34 198.614 308.965 198.614 309.591C224.222 308.246 239.425 284.764 251.866 265.601C256.78 257.598 261.218 249.368 265.401 240.954C274.054 223.513 282.753 206.091 291.598 188.76C297.498 177.182 304.056 165.752 312.841 156.428C318.998 149.825 327.584 145.765 336.553 145.927C340.753 145.924 344.963 146.907 347.539 149.713C350.155 152.484 350.983 156.75 350.963 160.958C350.964 162.648 350.668 164.301 349.94 165.294L349.906 165.343C349.397 166.105 348.587 166.675 347.547 167.059L346.325 167.521L346.329 168.817C346.313 169.758 346.59 171.212 347.745 172.15C348.878 173.051 350.022 173.127 350.916 173.145C354.252 172.946 355.652 170.665 356.836 169.06L356.775 169.147C359.32 165.585 359.557 161.613 359.624 157.977C359.752 152.194 357.588 145.681 352.716 141.82L352.787 141.881C348.159 137.564 341.683 135.866 335.74 135.905C327.143 135.866 319.081 139.425 312.339 144.075L312.32 144.088C302.163 151.468 295.087 161.591 288.653 171.748C283.675 179.782 279.651 188.179 275.738 196.624L275.725 196.652C270.415 208.642 265.162 220.655 259.937 232.682C255.04 243.878 249.347 254.73 242.961 265.16L242.955 265.17C237.279 274.536 230.74 283.392 222.969 290.96C217.046 296.751 209.805 301.317 201.859 302.195L203.87 306.262C209.821 300.118 213.544 292.312 215.855 284.402L215.846 284.433C218.77 274.908 220.514 265.075 221.387 255.21L221.383 255.252C222.419 245.46 223.034 235.606 223.041 225.727C223.051 214.418 221.725 203.115 219.199 192.108C216.732 181.12 212.605 170.423 206.711 160.744L206.73 160.775C202.962 154.348 198.073 148.509 192.253 143.786C189.704 141.71 186.988 139.845 184.15 138.2C174.547 132.597 163.355 129.681 152.273 129.737C134.722 129.555 116.535 135.248 103.221 147.171C89.4472 158.76 82.2779 177.195 82.63 194.833C82.6087 203.148 84.5739 211.522 88.3278 218.947L88.3615 219.011C92.1471 226.084 97.6265 232.372 104.312 236.909L104.337 236.926C111.24 241.587 119.675 243.866 127.883 243.801C136.99 243.889 146.459 240.874 153.492 234.822L153.519 234.798C160.644 228.901 164.518 219.318 164.308 210.28C164.298 207.923 164.049 205.676 163.732 203.455L163.735 203.476C163.393 200.974 162.886 198.454 161.98 195.959L162.001 196.017C161.72 195.198 161.403 194.365 160.817 193.456C160.28 192.632 159.127 191.244 157.151 191.231C156.447 191.239 155.328 191.337 154.344 192.297C153.385 193.282 153.289 194.401 153.282 195.104C153.283 195.285 153.283 195.465 153.283 195.646L153.35 196.19C153.844 198.173 154.274 200.25 154.693 202.316L154.736 202.492C155.331 204.564 155.74 206.665 155.747 208.654C155.83 215.774 153.472 222.737 148.542 227.74C143.773 232.831 136.875 235.315 129.78 235.254C120.207 235.42 110.584 232.01 105.158 224.245C99.0076 215.894 96.8048 205.128 96.8 194.562C96.7397 184.566 99.0243 174.568 104.048 165.979L104.056 165.964C108.757 157.606 115.626 150.547 123.919 145.722L123.929 145.717C132.499 140.558 142.496 138.008 152.544 138.017C166.548 137.655 179.199 146.179 187.313 157.556L187.327 157.576C192.736 164.764 196.118 173.481 198.819 182.251L198.828 182.28C202.501 193.555 205.032 205.208 206.761 216.975C208.241 226.923 209.198 236.944 209.498 246.988C209.557 248.933 209.59 250.881 209.598 252.827C209.629 260.57 209.082 268.316 207.812 275.945C206.728 282.422 204.994 288.826 202.034 294.629L202.021 294.655C200.024 298.865 197.044 302.78 192.827 304.504L192.222 304.755L192.225 305.401C192.106 306.92 193.414 308.586 194.753 309.002C196.079 309.518 197.364 309.585 198.614 309.591ZM198.614 307.715V309.591V307.715Z" fill="white"/>
</svg>
